STARTFONT 2.1
FONT -FontForge-BulBulPoly 4-Book-R-Normal--50-480-75-75-P-222-ISO10646-1
SIZE 48 75 75
FONTBOUNDINGBOX 44 53 0 -12
COMMENT "Generated by fontforge, http://fontforge.sourceforge.net"
COMMENT "Copyright BulBulMan 2026"
STARTPROPERTIES 31
FOUNDRY "FontForge"
FAMILY_NAME "BulBulPoly 4"
WEIGHT_NAME "Book"
SLANT "R"
SETWIDTH_NAME "Normal"
ADD_STYLE_NAME ""
PIXEL_SIZE 50
POINT_SIZE 480
RESOLUTION_X 75
RESOLUTION_Y 75
SPACING "P"
AVERAGE_WIDTH 222
CHARSET_REGISTRY "ISO10646"
CHARSET_ENCODING "1"
FONTNAME_REGISTRY ""
CHARSET_COLLECTIONS "ISO8859-5 ISO10646-1"
FONT_NAME "BulBulPoly4"
FACE_NAME "BulBulPoly 4 Regular"
COPYRIGHT "Copyright BulBulMan 2026"
FONT_VERSION "001.000"
FONT_ASCENT 40
FONT_DESCENT 10
UNDERLINE_POSITION 0
UNDERLINE_THICKNESS 3
X_HEIGHT 23
CAP_HEIGHT 33
RAW_ASCENT 800
RAW_DESCENT 200
NORM_SPACE 8
AVG_LOWERCASE_WIDTH 211
AVG_UPPERCASE_WIDTH 273
ENDPROPERTIES
CHARS 166
STARTCHAR .null
ENCODING 0
SWIDTH 0 0
DWIDTH 0 0
BBX 1 1 1 0
BITMAP
00
ENDCHAR
STARTCHAR nonmarkingreturn
ENCODING 13
SWIDTH 333 0
DWIDTH 17 0
BBX 1 1 1 0
BITMAP
00
ENDCHAR
STARTCHAR space
ENCODING 32
SWIDTH 153 0
DWIDTH 8 0
BBX 1 1 1 0
BITMAP
00
ENDCHAR
STARTCHAR exclam
ENCODING 33
SWIDTH 153 0
DWIDTH 8 0
BBX 4 34 0 0
BITMAP
F0
F0
F0
F0
F0
F0
F0
F0
F0
F0
F0
F0
F0
F0
F0
F0
F0
F0
F0
F0
F0
F0
F0
F0
F0
F0
00
00
00
00
F0
F0
F0
F0
ENDCHAR
STARTCHAR quotedbl
ENCODING 34
SWIDTH 269 0
DWIDTH 14 0
BBX 10 8 0 26
BITMAP
F3C0
F3C0
F3C0
F3C0
F3C0
F3C0
F3C0
F3C0
ENDCHAR
STARTCHAR percent
ENCODING 37
SWIDTH 480 0
DWIDTH 24 0
BBX 20 34 0 0
BITMAP
3F00F0
7F80F0
F3C1E0
E1C1E0
C0C3C0
C0C3C0
E1C780
F3C780
7F8F00
3F0F00
001E00
001E00
003C00
003C00
007800
007800
00F000
00F000
01E000
01E000
03C000
03C000
078000
078000
0F0FC0
0F1FE0
1E3CF0
1E3870
3C3030
3C3030
783870
783CF0
F01FE0
F00FC0
ENDCHAR
STARTCHAR quotesingle
ENCODING 39
SWIDTH 153 0
DWIDTH 8 0
BBX 4 10 0 24
BITMAP
F0
F0
F0
F0
F0
F0
F0
F0
F0
F0
ENDCHAR
STARTCHAR parenleft
ENCODING 40
SWIDTH 360 0
DWIDTH 18 0
BBX 14 34 0 0
BITMAP
00FC
03FC
0FFC
1FFC
3FC0
3F00
7C00
7C00
F800
F800
F000
F000
F000
F000
F000
F000
F000
F000
F000
F000
F000
F000
F000
F000
F800
F800
7C00
7C00
3F00
3FC0
1FFC
0FFC
03FC
00FC
ENDCHAR
STARTCHAR parenright
ENCODING 41
SWIDTH 360 0
DWIDTH 18 0
BBX 14 34 0 0
BITMAP
FC00
FF00
FFC0
FFE0
0FF0
03F0
00F8
00F8
007C
007C
003C
003C
003C
003C
003C
003C
003C
003C
003C
003C
003C
003C
003C
003C
007C
007C
00F8
00F8
03F0
0FF0
FFE0
FFC0
FF00
FC00
ENDCHAR
STARTCHAR asterisk
ENCODING 42
SWIDTH 307 0
DWIDTH 16 0
BBX 12 11 0 21
BITMAP
0600
0600
0600
CF30
FFF0
3FC0
0F00
1F80
1980
30C0
30C0
ENDCHAR
STARTCHAR plus
ENCODING 43
SWIDTH 307 0
DWIDTH 16 0
BBX 12 12 0 12
BITMAP
0F00
0F00
0F00
0F00
FFF0
FFF0
FFF0
FFF0
0F00
0F00
0F00
0F00
ENDCHAR
STARTCHAR comma
ENCODING 44
SWIDTH 153 0
DWIDTH 8 0
BBX 4 8 0 -4
BITMAP
F0
F0
30
70
E0
E0
C0
C0
ENDCHAR
STARTCHAR hyphen
ENCODING 45
SWIDTH 307 0
DWIDTH 16 0
BBX 12 4 0 16
BITMAP
FFF0
FFF0
FFF0
FFF0
ENDCHAR
STARTCHAR period
ENCODING 46
SWIDTH 153 0
DWIDTH 8 0
BBX 4 4 0 0
BITMAP
F0
F0
F0
F0
ENDCHAR
STARTCHAR slash
ENCODING 47
SWIDTH 480 0
DWIDTH 24 0
BBX 20 34 0 0
BITMAP
0000F0
0000F0
0001E0
0001E0
0003C0
0003C0
000780
000780
000F00
000F00
001E00
001E00
003C00
003C00
007800
007800
00F000
00F000
01E000
01E000
03C000
03C000
078000
078000
0F0000
0F0000
1E0000
1E0000
3C0000
3C0000
780000
780000
F00000
F00000
ENDCHAR
STARTCHAR zero
ENCODING 48
SWIDTH 345 0
DWIDTH 18 0
BBX 14 24 0 0
BITMAP
0300
0FC0
1FE0
3FF0
7CF8
7878
F03C
F03C
F03C
F03C
F03C
F03C
F03C
F03C
F03C
F03C
F03C
F03C
7878
7CF8
3FF0
1FE0
0FC0
0300
ENDCHAR
STARTCHAR one
ENCODING 49
SWIDTH 269 0
DWIDTH 14 0
BBX 10 24 0 0
BITMAP
03C0
07C0
0FC0
1FC0
3FC0
7FC0
FBC0
F3C0
03C0
03C0
03C0
03C0
03C0
03C0
03C0
03C0
03C0
03C0
03C0
03C0
03C0
03C0
03C0
03C0
ENDCHAR
STARTCHAR two
ENCODING 50
SWIDTH 345 0
DWIDTH 18 0
BBX 14 24 0 0
BITMAP
03C0
0FF0
1FF8
3FF8
7C7C
783C
F03C
F03C
003C
007C
00FC
01F8
03F0
07E0
0FC0
1F80
3F00
7E00
FC00
F800
FFFC
FFFC
FFFC
FFFC
ENDCHAR
STARTCHAR three
ENCODING 51
SWIDTH 345 0
DWIDTH 18 0
BBX 14 24 0 0
BITMAP
0F00
3FC0
7FE0
7FF0
F8F8
F078
0078
0078
00F0
01E0
07C0
07E0
07F0
00F8
0078
003C
003C
003C
F03C
F87C
7FF8
7FF8
3FF0
0FC0
ENDCHAR
STARTCHAR four
ENCODING 52
SWIDTH 345 0
DWIDTH 18 0
BBX 14 24 0 0
BITMAP
03F0
03F0
07F0
07F0
0FF0
0FF0
1FF0
1FF0
3CF0
3CF0
78F0
78F0
F0F0
F0F0
F0F0
F0F0
FFFC
FFFC
FFFC
FFFC
00F0
00F0
00F0
00F0
ENDCHAR
STARTCHAR five
ENCODING 53
SWIDTH 345 0
DWIDTH 18 0
BBX 14 24 0 0
BITMAP
FFFC
FFFC
FFFC
FFFC
F000
F000
F000
F000
FF00
FFC0
FFE0
FFF0
F0F8
F078
003C
003C
003C
003C
F078
F8F8
7FF0
7FE0
3FC0
0F00
ENDCHAR
STARTCHAR six
ENCODING 54
SWIDTH 384 0
DWIDTH 20 0
BBX 16 24 0 0
BITMAP
03F0
0FFC
1FFE
3FFE
7C1F
780F
F000
F000
F000
F000
FFC0
FFF0
FFF8
FFFC
FC3E
F81E
F00F
F00F
781E
7C3E
3FFC
1FF8
0FF0
03C0
ENDCHAR
STARTCHAR seven
ENCODING 55
SWIDTH 384 0
DWIDTH 20 0
BBX 16 24 0 0
BITMAP
FFFF
FFFF
FFFF
FFFF
001F
003E
007C
00F8
00F0
01F0
01E0
01E0
03E0
03C0
03C0
03C0
0780
0780
0780
0780
0F00
0F00
0F00
0F00
ENDCHAR
STARTCHAR eight
ENCODING 56
SWIDTH 384 0
DWIDTH 20 0
BBX 16 24 0 0
BITMAP
03C0
0FF0
1FF8
1FF8
3E7C
3C3C
3C3C
3E7C
3FFC
1FF8
0FF0
0FF0
1FF8
3FFC
7C3E
F81F
F00F
F00F
781E
7C3E
3FFC
1FF8
0FF0
03C0
ENDCHAR
STARTCHAR nine
ENCODING 57
SWIDTH 384 0
DWIDTH 20 0
BBX 16 24 0 0
BITMAP
03C0
0FF0
1FF8
3FFC
7C3E
781E
F00F
F00F
781F
7C3F
3FFF
1FFF
0FFF
03FF
000F
000F
000F
000F
F01E
F83E
7FFC
7FF8
3FF0
0FC0
ENDCHAR
STARTCHAR colon
ENCODING 58
SWIDTH 153 0
DWIDTH 8 0
BBX 4 30 0 2
BITMAP
F0
F0
F0
F0
00
00
00
00
00
00
00
00
00
00
00
00
00
00
00
00
00
00
00
00
00
00
F0
F0
F0
F0
ENDCHAR
STARTCHAR semicolon
ENCODING 59
SWIDTH 153 0
DWIDTH 8 0
BBX 4 34 0 -2
BITMAP
F0
F0
F0
F0
00
00
00
00
00
00
00
00
00
00
00
00
00
00
00
00
00
00
00
00
00
00
F0
F0
30
70
E0
E0
C0
C0
ENDCHAR
STARTCHAR less
ENCODING 60
SWIDTH 345 0
DWIDTH 18 0
BBX 14 24 0 6
BITMAP
001C
003C
007C
00F8
01F0
03E0
07C0
0F80
1F00
3E00
7C00
F800
F800
7C00
3E00
1F00
0F80
07C0
03E0
01F0
00F8
007C
003C
001C
ENDCHAR
STARTCHAR equal
ENCODING 61
SWIDTH 307 0
DWIDTH 16 0
BBX 12 12 0 12
BITMAP
FFF0
FFF0
FFF0
FFF0
0000
0000
0000
0000
FFF0
FFF0
FFF0
FFF0
ENDCHAR
STARTCHAR greater
ENCODING 62
SWIDTH 345 0
DWIDTH 18 0
BBX 14 24 0 6
BITMAP
E000
F000
F800
7C00
3E00
1F00
0F80
07C0
03E0
01F0
00F8
007C
007C
00F8
01F0
03E0
07C0
0F80
1F00
3E00
7C00
F800
F000
E000
ENDCHAR
STARTCHAR question
ENCODING 63
SWIDTH 440 0
DWIDTH 22 0
BBX 18 34 0 0
BITMAP
03F000
0FFC00
1FFE00
3FFF00
7E1F80
780780
F807C0
F003C0
F003C0
F003C0
0003C0
0007C0
000780
000F80
001F00
001E00
003E00
003C00
007C00
007800
00F800
00F000
00F000
00F000
00F000
00F000
000000
000000
000000
000000
00F000
00F000
00F000
00F000
ENDCHAR
STARTCHAR A
ENCODING 65
SWIDTH 480 0
DWIDTH 24 0
BBX 20 34 0 0
BITMAP
00F000
03FC00
0FFF00
1FFF80
3F0FC0
3C03C0
7801E0
7801E0
F000F0
F000F0
F000F0
F000F0
F000F0
F000F0
F000F0
F000F0
FFFFF0
FFFFF0
FFFFF0
FFFFF0
F000F0
F000F0
F000F0
F000F0
F000F0
F000F0
F000F0
F000F0
F000F0
F000F0
F000F0
F000F0
F000F0
F000F0
ENDCHAR
STARTCHAR B
ENCODING 66
SWIDTH 461 0
DWIDTH 24 0
BBX 20 34 0 0
BITMAP
FFC000
FFF000
FFF800
FFFC00
F03E00
F01E00
F00F00
F00F00
F00F00
F00F00
F01E00
F01E00
F03C00
F0F800
FFF800
FFFC00
FFFE00
FFFF00
F01F80
F007C0
F003E0
F001E0
F001F0
F000F0
F000F0
F000F0
F001E0
F003E0
F00FC0
F03FC0
FFFF80
FFFF00
FFFC00
FFF000
ENDCHAR
STARTCHAR C
ENCODING 67
SWIDTH 520 0
DWIDTH 26 0
BBX 22 34 0 0
BITMAP
00FF00
03FFC0
07FFE0
0FFFF0
1FC3F8
1F00F8
3E007C
3C007C
7C003C
78003C
780000
F80000
F00000
F00000
F00000
F00000
F00000
F00000
F00000
F00000
F00000
F00000
F80000
780000
78003C
7C003C
3C007C
3E007C
1F00F8
1FC3F8
0FFFF0
07FFE0
03FFC0
00FF00
ENDCHAR
STARTCHAR D
ENCODING 68
SWIDTH 520 0
DWIDTH 26 0
BBX 22 34 0 0
BITMAP
FFE000
FFFC00
FFFF00
FFFF80
F07FC0
F00FE0
F003F0
F001F0
F000F8
F000F8
F00078
F0007C
F0007C
F0003C
F0003C
F0003C
F0003C
F0003C
F0003C
F0003C
F0003C
F0007C
F0007C
F00078
F000F8
F000F8
F001F0
F003F0
F00FE0
F07FC0
FFFF80
FFFF00
FFFC00
FFE000
ENDCHAR
STARTCHAR E
ENCODING 69
SWIDTH 520 0
DWIDTH 26 0
BBX 22 34 0 0
BITMAP
FFFFFC
FFFFFC
FFFFFC
FFFFFC
F00000
F00000
F00000
F00000
F00000
F00000
F00000
F00000
F00000
F00000
FFFFC0
FFFFC0
FFFFC0
FFFFC0
F00000
F00000
F00000
F00000
F00000
F00000
F00000
F00000
F00000
F00000
F00000
F00000
FFFFFC
FFFFFC
FFFFFC
FFFFFC
ENDCHAR
STARTCHAR F
ENCODING 70
SWIDTH 461 0
DWIDTH 24 0
BBX 20 34 0 0
BITMAP
FFFFF0
FFFFF0
FFFFF0
FFFFF0
F00000
F00000
F00000
F00000
F00000
F00000
F00000
F00000
F00000
F00000
FFFF00
FFFF00
FFFF00
FFFF00
F00000
F00000
F00000
F00000
F00000
F00000
F00000
F00000
F00000
F00000
F00000
F00000
F00000
F00000
F00000
F00000
ENDCHAR
STARTCHAR G
ENCODING 71
SWIDTH 520 0
DWIDTH 26 0
BBX 22 34 0 0
BITMAP
00FF00
03FFC0
07FFE0
0FFFF0
1FC3F8
1F00F8
3E007C
3C007C
7C003C
78003C
780000
F80000
F00000
F00000
F00000
F00000
F0FFFC
F0FFFC
F0FFFC
F0FFFC
F0003C
F0003C
F8003C
78003C
78003C
7C003C
3C007C
3E007C
1F00FC
1FC3FC
0FFFFC
07FFFC
03FFFC
00FF3C
ENDCHAR
STARTCHAR H
ENCODING 72
SWIDTH 520 0
DWIDTH 26 0
BBX 22 34 0 0
BITMAP
F0003C
F0003C
F0003C
F0003C
F0003C
F0003C
F0003C
F0003C
F0003C
F0003C
F0003C
F0003C
F0003C
F0003C
F0003C
F0003C
FFFFFC
FFFFFC
FFFFFC
FFFFFC
F0003C
F0003C
F0003C
F0003C
F0003C
F0003C
F0003C
F0003C
F0003C
F0003C
F0003C
F0003C
F0003C
F0003C
ENDCHAR
STARTCHAR I
ENCODING 73
SWIDTH 307 0
DWIDTH 16 0
BBX 12 34 0 0
BITMAP
FFF0
FFF0
FFF0
FFF0
0F00
0F00
0F00
0F00
0F00
0F00
0F00
0F00
0F00
0F00
0F00
0F00
0F00
0F00
0F00
0F00
0F00
0F00
0F00
0F00
0F00
0F00
0F00
0F00
0F00
0F00
FFF0
FFF0
FFF0
FFF0
ENDCHAR
STARTCHAR J
ENCODING 74
SWIDTH 422 0
DWIDTH 22 0
BBX 18 34 0 0
BITMAP
FFFFC0
FFFFC0
FFFFC0
FFFFC0
0003C0
0003C0
0003C0
0003C0
0003C0
0003C0
0003C0
0003C0
0003C0
0003C0
0003C0
0003C0
0003C0
0003C0
0003C0
0003C0
0003C0
0003C0
0003C0
0003C0
F003C0
F003C0
F807C0
F807C0
7C0F80
7F3F80
3FFF00
1FFE00
0FFC00
03F000
ENDCHAR
STARTCHAR K
ENCODING 75
SWIDTH 520 0
DWIDTH 26 0
BBX 22 34 0 0
BITMAP
F0003C
F0003C
F0003C
F0003C
F0003C
F0007C
F0007C
F000F8
F001F8
F003F0
F007E0
F00FC0
F01F80
F07F00
FFFE00
FFFC00
FFFE00
FFFF00
F07F80
F00FC0
F003E0
F001F0
F000F0
F000F8
F00078
F00078
F0007C
F0003C
F0003C
F0003C
F0003C
F0003C
F0003C
F0003C
ENDCHAR
STARTCHAR L
ENCODING 76
SWIDTH 461 0
DWIDTH 24 0
BBX 20 34 0 0
BITMAP
F00000
F00000
F00000
F00000
F00000
F00000
F00000
F00000
F00000
F00000
F00000
F00000
F00000
F00000
F00000
F00000
F00000
F00000
F00000
F00000
F00000
F00000
F00000
F00000
F00000
F00000
F00000
F00000
F00000
F00000
FFFFF0
FFFFF0
FFFFF0
FFFFF0
ENDCHAR
STARTCHAR M
ENCODING 77
SWIDTH 640 0
DWIDTH 32 0
BBX 28 34 0 0
BITMAP
FC0003F0
FC0003F0
FE0007F0
FE0007F0
FF000FF0
FF000FF0
FF801FF0
FF801FF0
FFC03FF0
FFC03FF0
F3E07CF0
F3E07CF0
F1F0F8F0
F1F0F8F0
F0F9F0F0
F0F9F0F0
F07FE0F0
F07FE0F0
F03FC0F0
F03FC0F0
F01F80F0
F01F80F0
F00F00F0
F00F00F0
F00600F0
F00600F0
F00000F0
F00000F0
F00000F0
F00000F0
F00000F0
F00000F0
F00000F0
F00000F0
ENDCHAR
STARTCHAR N
ENCODING 78
SWIDTH 540 0
DWIDTH 27 0
BBX 23 34 0 0
BITMAP
FC001E
FC001E
FE001E
FE001E
FF001E
FF001E
FF801E
FF801E
F7C01E
F7C01E
F3E01E
F3E01E
F1F01E
F1F01E
F0F81E
F0F81E
F07C1E
F07C1E
F03E1E
F03E1E
F01F1E
F01F1E
F00F9E
F00F9E
F007DE
F007DE
F003FE
F003FE
F001FE
F001FE
F000FE
F000FE
F0007E
F0007E
ENDCHAR
STARTCHAR O
ENCODING 79
SWIDTH 560 0
DWIDTH 28 0
BBX 24 34 0 0
BITMAP
00FF00
03FFC0
0FFFF0
1FFFF8
3FC3FC
3F00FC
7C003E
7C003E
F8001F
F8001F
F0000F
F0000F
F0000F
F0000F
F0000F
F0000F
F0000F
F0000F
F0000F
F0000F
F0000F
F0000F
F0000F
F0000F
F8001F
F8001F
7C003E
7C003E
3F00FC
3FC3FC
1FFFF8
0FFFF0
03FFC0
00FF00
ENDCHAR
STARTCHAR P
ENCODING 80
SWIDTH 460 0
DWIDTH 23 0
BBX 19 34 0 0
BITMAP
FFF000
FFFC00
FFFE00
FFFF00
F01F80
F007C0
F003C0
F003E0
F001E0
F001E0
F001E0
F001E0
F001E0
F001E0
F003E0
F003C0
F007C0
F01F80
FFFF00
FFFE00
FFFC00
FFF000
F00000
F00000
F00000
F00000
F00000
F00000
F00000
F00000
F00000
F00000
F00000
F00000
ENDCHAR
STARTCHAR Q
ENCODING 81
SWIDTH 560 0
DWIDTH 28 0
BBX 26 36 0 -2
BITMAP
00FF0000
03FFC000
0FFFF000
1FFFF800
3FC3FC00
3F00FC00
7C003E00
7C003E00
F8001F00
F8001F00
F0000F00
F0000F00
F0000F00
F0000F00
F0000F00
F0000F00
F0000F00
F0000F00
F0000F00
F0000F00
F0000F00
F0000F00
F0000F00
F0000F00
F8001F00
F8001F00
7C003E00
7C003E00
3F00FC00
3FC3FC00
1FFFFE00
0FFFFF00
03FFCF80
00FF07C0
000003C0
000001C0
ENDCHAR
STARTCHAR R
ENCODING 82
SWIDTH 460 0
DWIDTH 23 0
BBX 19 34 0 0
BITMAP
FFF000
FFFC00
FFFE00
FFFF00
F01F80
F007C0
F003C0
F003E0
F001E0
F001E0
F001E0
F001E0
F001E0
F001E0
F003E0
F003C0
F007C0
F01F80
FFFF00
FFFE00
FFFC00
FFF800
F0FC00
F07E00
F03F00
F01F80
F00F80
F007C0
F007C0
F003C0
F003E0
F001E0
F001E0
F001E0
ENDCHAR
STARTCHAR S
ENCODING 83
SWIDTH 461 0
DWIDTH 24 0
BBX 20 34 0 0
BITMAP
00F000
03FC00
07FE00
0FFF00
1F0F80
3E07C0
7C03E0
7801E0
F000F0
F000F0
F000F0
F00000
F00000
F80000
7C0000
7E0000
3FFC00
1FFF00
0FFF80
03FFC0
0003E0
0001E0
0000F0
F000F0
F000F0
F000F0
7801E0
7C03E0
3E07C0
1F0F80
0FFF00
07FE00
03FC00
00F000
ENDCHAR
STARTCHAR T
ENCODING 84
SWIDTH 520 0
DWIDTH 26 0
BBX 22 34 0 0
BITMAP
FFFFFC
FFFFFC
FFFFFC
FFFFFC
00F000
00F000
00F000
00F000
00F000
00F000
00F000
00F000
00F000
00F000
00F000
00F000
00F000
00F000
00F000
00F000
00F000
00F000
00F000
00F000
00F000
00F000
00F000
00F000
00F000
00F000
00F000
00F000
00F000
00F000
ENDCHAR
STARTCHAR U
ENCODING 85
SWIDTH 520 0
DWIDTH 26 0
BBX 22 34 0 0
BITMAP
F0003C
F0003C
F0003C
F0003C
F0003C
F0003C
F0003C
F0003C
F0003C
F0003C
F0003C
F0003C
F0003C
F0003C
F0003C
F0003C
F0003C
F0003C
F0003C
F0003C
F0003C
F0003C
F0003C
F0003C
F8007C
F8007C
7C00F8
7E01F8
3F03F0
1FCFE0
0FFFC0
07FF80
03FF00
00FC00
ENDCHAR
STARTCHAR V
ENCODING 86
SWIDTH 480 0
DWIDTH 24 0
BBX 20 34 0 0
BITMAP
F000F0
F000F0
F000F0
7801E0
7801E0
7801E0
7801E0
3C03C0
3C03C0
3C03C0
3C03C0
1E0780
1E0780
1E0780
1E0780
0F0F00
0F0F00
0F0F00
0F0F00
079E00
079E00
079E00
079E00
03FC00
03FC00
03FC00
03FC00
01F800
01F800
01F800
01F800
00F000
00F000
00F000
ENDCHAR
STARTCHAR W
ENCODING 87
SWIDTH 760 0
DWIDTH 38 0
BBX 34 34 0 0
BITMAP
F0000003C0
F0000003C0
F0000003C0
7800000780
7800000780
7800000780
7800000780
3C00000F00
3C00000F00
3C00000F00
3C00000F00
1E00001E00
1E00C01E00
1E00C01E00
1E01E01E00
0F01E03C00
0F03F03C00
0F03F03C00
0F07F83C00
0787F87800
078FFC7800
078F3C7800
079F3E7800
03FE1FF000
03FE1FF000
03FC0FF000
03FC0FF000
01F807E000
01F807E000
01F807E000
01F807E000
00F003C000
00F003C000
00F003C000
ENDCHAR
STARTCHAR X
ENCODING 88
SWIDTH 600 0
DWIDTH 30 0
BBX 26 34 0 0
BITMAP
F00003C0
F00003C0
F00003C0
F00003C0
F00003C0
F80007C0
78000780
78000780
7C000F80
3C000F00
3E001F00
1F003E00
1F807E00
0FE1FC00
07FFF800
03FFF000
01FFE000
01FFE000
03FFF000
07FFF800
0FE1FC00
1F807E00
1F003E00
3E001F00
3C000F00
7C000F80
78000780
78000780
F80007C0
F00003C0
F00003C0
F00003C0
F00003C0
F00003C0
ENDCHAR
STARTCHAR Y
ENCODING 89
SWIDTH 560 0
DWIDTH 28 0
BBX 24 34 0 0
BITMAP
F0000F
F0000F
F0000F
F0000F
F0000F
F0000F
F8001F
FC003F
7E007E
3F00FC
1F81F8
0FC3F0
07E7E0
03FFC0
01FF80
00FF00
007E00
003C00
003C00
003C00
003C00
003C00
003C00
003C00
003C00
003C00
003C00
003C00
003C00
003C00
003C00
003C00
003C00
003C00
ENDCHAR
STARTCHAR Z
ENCODING 90
SWIDTH 520 0
DWIDTH 26 0
BBX 22 34 0 0
BITMAP
FFFFFC
FFFFFC
FFFFFC
FFFFFC
00003C
00003C
00003C
00007C
0000FC
0001F8
0003F0
0007E0
000FC0
001F80
003F00
007E00
00FC00
01F800
03F000
07E000
0FC000
1F8000
3F0000
7E0000
FC0000
F80000
F00000
F00000
F00000
F00000
FFFFFC
FFFFFC
FFFFFC
FFFFFC
ENDCHAR
STARTCHAR bracketleft
ENCODING 91
SWIDTH 320 0
DWIDTH 16 0
BBX 12 34 0 0
BITMAP
FFF0
FFF0
FFF0
FFF0
F000
F000
F000
F000
F000
F000
F000
F000
F000
F000
F000
F000
F000
F000
F000
F000
F000
F000
F000
F000
F000
F000
F000
F000
F000
F000
FFF0
FFF0
FFF0
FFF0
ENDCHAR
STARTCHAR backslash
ENCODING 92
SWIDTH 480 0
DWIDTH 24 0
BBX 20 34 0 0
BITMAP
F00000
F00000
780000
780000
3C0000
3C0000
1E0000
1E0000
0F0000
0F0000
078000
078000
03C000
03C000
01E000
01E000
00F000
00F000
007800
007800
003C00
003C00
001E00
001E00
000F00
000F00
000780
000780
0003C0
0003C0
0001E0
0001E0
0000F0
0000F0
ENDCHAR
STARTCHAR bracketright
ENCODING 93
SWIDTH 320 0
DWIDTH 16 0
BBX 12 34 0 0
BITMAP
FFF0
FFF0
FFF0
FFF0
00F0
00F0
00F0
00F0
00F0
00F0
00F0
00F0
00F0
00F0
00F0
00F0
00F0
00F0
00F0
00F0
00F0
00F0
00F0
00F0
00F0
00F0
00F0
00F0
00F0
00F0
FFF0
FFF0
FFF0
FFF0
ENDCHAR
STARTCHAR asciicircum
ENCODING 94
SWIDTH 440 0
DWIDTH 22 0
BBX 18 12 0 22
BITMAP
00C000
01E000
03F000
07F800
0FFC00
1FFE00
3F3F00
7E1F80
FC0FC0
F807C0
F003C0
E001C0
ENDCHAR
STARTCHAR underscore
ENCODING 95
SWIDTH 400 0
DWIDTH 20 0
BBX 16 4 0 0
BITMAP
FFFF
FFFF
FFFF
FFFF
ENDCHAR
STARTCHAR a
ENCODING 97
SWIDTH 384 0
DWIDTH 20 0
BBX 18 24 0 0
BITMAP
1FF800
3FFC00
7FFE00
FFFF00
F81F00
F00F00
000F00
000F00
000F00
000F00
07FF00
1FFF00
3FFF00
7FFF00
FC0F00
F80F00
F00F00
F00F00
F80F00
FC1F00
7FFF80
3FFFC0
1FFBC0
07F1C0
ENDCHAR
STARTCHAR b
ENCODING 98
SWIDTH 384 0
DWIDTH 20 0
BBX 16 34 0 0
BITMAP
F000
F000
F000
F000
F000
F000
F000
F000
F000
F000
FFC0
FFF0
FFF8
FFFC
F0FE
F03E
F01F
F01F
F00F
F00F
F00F
F00F
F00F
F00F
F00F
F00F
F01F
F01F
F03E
F0FE
FFFC
FFF8
FFF0
FFC0
ENDCHAR
STARTCHAR c
ENCODING 99
SWIDTH 345 0
DWIDTH 18 0
BBX 14 24 0 0
BITMAP
03F0
0FF8
1FFC
3FFC
7F3C
7C1C
F800
F800
F000
F000
F000
F000
F000
F000
F000
F000
F800
F800
7C1C
7F3C
3FFC
1FFC
0FF8
03F0
ENDCHAR
STARTCHAR d
ENCODING 100
SWIDTH 384 0
DWIDTH 20 0
BBX 16 34 0 0
BITMAP
000F
000F
000F
000F
000F
000F
000F
000F
000F
000F
03FF
0FFF
1FFF
3FFF
7F0F
7C0F
F80F
F80F
F00F
F00F
F00F
F00F
F00F
F00F
F00F
F00F
F80F
F80F
7C0F
7F0F
3FFF
1FFF
0FFF
03FF
ENDCHAR
STARTCHAR e
ENCODING 101
SWIDTH 384 0
DWIDTH 20 0
BBX 16 24 0 0
BITMAP
03C0
0FF0
1FF8
3FFC
7C3E
781E
F00F
F00F
F00F
F00F
FFFF
FFFF
FFFF
FFFF
F000
F000
F000
F000
780F
7C1F
3FFF
1FFE
0FFC
03F8
ENDCHAR
STARTCHAR f
ENCODING 102
SWIDTH 384 0
DWIDTH 20 0
BBX 16 34 0 0
BITMAP
00FF
03FF
07FF
0FFF
1FC0
1F00
3E00
3E00
3C00
3C00
FFFF
FFFF
FFFF
FFFF
3C00
3C00
3C00
3C00
3C00
3C00
3C00
3C00
3C00
3C00
3C00
3C00
3C00
3C00
3C00
3C00
3C00
3C00
3C00
3C00
ENDCHAR
STARTCHAR g
ENCODING 103
SWIDTH 384 0
DWIDTH 20 0
BBX 16 36 0 -12
BITMAP
03FF
0FFF
1FFF
3FFF
7F0F
7C0F
F80F
F80F
F00F
F00F
F00F
F00F
F00F
F00F
F00F
F00F
F80F
F80F
7C0F
7F0F
3FFF
1FFF
0FFF
03FF
000F
000F
F00F
F00F
F00F
F00F
781E
7C3E
3FFC
1FF8
0FF0
03C0
ENDCHAR
STARTCHAR h
ENCODING 104
SWIDTH 384 0
DWIDTH 20 0
BBX 16 34 0 0
BITMAP
F000
F000
F000
F000
F000
F000
F000
F000
F000
F000
FFC0
FFF0
FFF8
FFFC
F0FE
F03E
F01F
F01F
F00F
F00F
F00F
F00F
F00F
F00F
F00F
F00F
F00F
F00F
F00F
F00F
F00F
F00F
F00F
F00F
ENDCHAR
STARTCHAR i
ENCODING 105
SWIDTH 153 0
DWIDTH 8 0
BBX 4 34 0 0
BITMAP
F0
F0
F0
F0
00
00
00
00
F0
F0
F0
F0
F0
F0
F0
F0
F0
F0
F0
F0
F0
F0
F0
F0
F0
F0
F0
F0
F0
F0
F0
F0
F0
F0
ENDCHAR
STARTCHAR j
ENCODING 106
SWIDTH 384 0
DWIDTH 20 0
BBX 16 46 0 -12
BITMAP
000F
000F
000F
000F
0000
0000
0000
0000
000F
000F
000F
000F
000F
000F
000F
000F
000F
000F
000F
000F
000F
000F
000F
000F
000F
000F
000F
000F
000F
000F
000F
000F
000F
000F
000F
000F
F00F
F00F
F00F
F00F
781E
7C3E
3FFC
1FF8
0FF0
03C0
ENDCHAR
STARTCHAR k
ENCODING 107
SWIDTH 384 0
DWIDTH 20 0
BBX 16 34 0 0
BITMAP
F000
F000
F000
F000
F000
F000
F000
F000
F000
F000
F007
F00F
F01F
F03F
F07E
F0FC
F1F8
F3F0
F7E0
FFC0
FF80
FF00
FF00
FF80
FFC0
F7E0
F3F0
F1F8
F0FC
F07E
F03F
F01F
F00F
F007
ENDCHAR
STARTCHAR l
ENCODING 108
SWIDTH 153 0
DWIDTH 8 0
BBX 4 34 0 0
BITMAP
F0
F0
F0
F0
F0
F0
F0
F0
F0
F0
F0
F0
F0
F0
F0
F0
F0
F0
F0
F0
F0
F0
F0
F0
F0
F0
F0
F0
F0
F0
F0
F0
F0
F0
ENDCHAR
STARTCHAR m
ENCODING 109
SWIDTH 560 0
DWIDTH 28 0
BBX 24 24 0 0
BITMAP
F781F0
FFC3FC
FFE7FE
FFFFFE
FCFF3F
F87E1F
F03C0F
F03C0F
F03C0F
F03C0F
F03C0F
F03C0F
F03C0F
F03C0F
F03C0F
F03C0F
F03C0F
F03C0F
F03C0F
F03C0F
F03C0F
F03C0F
F03C0F
F03C0F
ENDCHAR
STARTCHAR n
ENCODING 110
SWIDTH 384 0
DWIDTH 20 0
BBX 16 24 0 0
BITMAP
F7F0
FFFC
FFFE
FFFE
FC3F
F81F
F00F
F00F
F00F
F00F
F00F
F00F
F00F
F00F
F00F
F00F
F00F
F00F
F00F
F00F
F00F
F00F
F00F
F00F
ENDCHAR
STARTCHAR o
ENCODING 111
SWIDTH 422 0
DWIDTH 22 0
BBX 18 24 0 0
BITMAP
03F000
0FFC00
1FFE00
3FFF00
7F3F80
7C0F80
F807C0
F807C0
F003C0
F003C0
F003C0
F003C0
F003C0
F003C0
F003C0
F003C0
F807C0
F807C0
7C0F80
7F3F80
3FFF00
1FFE00
0FFC00
03F000
ENDCHAR
STARTCHAR p
ENCODING 112
SWIDTH 384 0
DWIDTH 20 0
BBX 16 36 0 -12
BITMAP
FFC0
FFF0
FFF8
FFFC
F0FE
F03E
F01F
F01F
F00F
F00F
F00F
F00F
F00F
F00F
F00F
F00F
F01F
F01F
F03E
F0FE
FFFC
FFF8
FFF0
FFC0
F000
F000
F000
F000
F000
F000
F000
F000
F000
F000
F000
F000
ENDCHAR
STARTCHAR q
ENCODING 113
SWIDTH 384 0
DWIDTH 20 0
BBX 16 36 0 -12
BITMAP
03FF
0FFF
1FFF
3FFF
7F0F
7C0F
F80F
F80F
F00F
F00F
F00F
F00F
F00F
F00F
F00F
F00F
F80F
F80F
7C0F
7F0F
3FFF
1FFF
0FFF
03FF
000F
000F
000F
000F
000F
000F
000F
000F
000F
000F
000F
000F
ENDCHAR
STARTCHAR r
ENCODING 114
SWIDTH 345 0
DWIDTH 18 0
BBX 14 24 0 0
BITMAP
F7C0
FFF0
FFF8
FFF8
FC7C
F83C
F01C
F000
F000
F000
F000
F000
F000
F000
F000
F000
F000
F000
F000
F000
F000
F000
F000
F000
ENDCHAR
STARTCHAR s
ENCODING 115
SWIDTH 307 0
DWIDTH 16 0
BBX 12 24 0 0
BITMAP
0F00
3FC0
7FE0
7FE0
F9F0
F0F0
F000
F000
F000
F800
FF00
7FC0
3FE0
0FF0
01F0
00F0
00F0
00F0
F0F0
F9F0
7FE0
7FE0
3FC0
0F00
ENDCHAR
STARTCHAR t
ENCODING 116
SWIDTH 384 0
DWIDTH 20 0
BBX 16 34 0 0
BITMAP
0F00
0F00
0F00
0F00
0F00
0F00
0F00
0F00
0F00
0F00
FFFF
FFFF
FFFF
FFFF
0F00
0F00
0F00
0F00
0F00
0F00
0F00
0F00
0F00
0F00
0F00
0F00
0F00
0F00
0F07
078F
07FF
03FF
01FE
00FC
ENDCHAR
STARTCHAR u
ENCODING 117
SWIDTH 400 0
DWIDTH 20 0
BBX 18 24 0 0
BITMAP
F00F00
F00F00
F00F00
F00F00
F00F00
F00F00
F00F00
F00F00
F00F00
F00F00
F00F00
F00F00
F00F00
F00F00
F00F00
F00F00
F00F00
F00F00
781F00
7C3F00
3FFF80
1FFFC0
0FFBC0
03F1C0
ENDCHAR
STARTCHAR v
ENCODING 118
SWIDTH 461 0
DWIDTH 24 0
BBX 20 24 0 0
BITMAP
F000F0
F000F0
F000F0
F000F0
F000F0
F000F0
F000F0
F000F0
7801E0
7801E0
3C03C0
3C03C0
1E0780
1E0780
0F0F00
0F0F00
079E00
079E00
03FC00
03FC00
01F800
01F800
00F000
00F000
ENDCHAR
STARTCHAR w
ENCODING 119
SWIDTH 600 0
DWIDTH 30 0
BBX 26 24 0 0
BITMAP
F00003C0
F00003C0
F00003C0
F00003C0
F00003C0
F00003C0
F00003C0
F00003C0
78000780
78000780
3C0C0F00
3C0C0F00
1E1E1E00
1E1E1E00
0F3F3C00
0F3F3C00
07FFF800
07FFF800
03F3F000
03F3F000
01E1E000
01E1E000
00C0C000
00C0C000
ENDCHAR
STARTCHAR x
ENCODING 120
SWIDTH 422 0
DWIDTH 22 0
BBX 18 24 0 0
BITMAP
F003C0
F003C0
F003C0
F003C0
F807C0
7C0F80
7E1F80
3F3F00
1FFE00
0FFC00
07F800
03F000
03F000
07F800
0FFC00
1FFE00
3F3F00
3E1F00
7C0F80
780780
F003C0
F003C0
F003C0
F003C0
ENDCHAR
STARTCHAR y
ENCODING 121
SWIDTH 440 0
DWIDTH 22 0
BBX 18 24 0 0
BITMAP
F003C0
F003C0
F003C0
F003C0
780780
780780
3C0F00
3C0F00
1E1E00
1F3E00
0FFC00
0FFC00
07F800
03F800
00F000
00F000
01E000
03E000
07C000
0FC000
FF8000
FF0000
FE0000
FC0000
ENDCHAR
STARTCHAR z
ENCODING 122
SWIDTH 384 0
DWIDTH 20 0
BBX 16 24 0 0
BITMAP
FFFF
FFFF
FFFF
FFFF
000F
000F
001F
003F
007E
00FC
01F8
03F0
07E0
0FC0
1F80
3F00
7E00
FC00
F800
F000
FFFF
FFFF
FFFF
FFFF
ENDCHAR
STARTCHAR braceleft
ENCODING 123
SWIDTH 420 0
DWIDTH 21 0
BBX 17 34 0 0
BITMAP
001F80
007F80
01FF80
03FF80
07F800
07E000
0F8000
0F8000
1F0000
1F0000
1E0000
1E0000
1E0000
1E0000
3E0000
3C0000
F80000
F80000
3C0000
3E0000
1E0000
1E0000
1E0000
1E0000
1F0000
1F0000
0F8000
0F8000
07E000
07F800
03FF80
01FF80
007F80
001F80
ENDCHAR
STARTCHAR bar
ENCODING 124
SWIDTH 153 0
DWIDTH 8 0
BBX 4 34 0 0
BITMAP
F0
F0
F0
F0
F0
F0
F0
F0
F0
F0
F0
F0
F0
F0
F0
F0
F0
F0
F0
F0
F0
F0
F0
F0
F0
F0
F0
F0
F0
F0
F0
F0
F0
F0
ENDCHAR
STARTCHAR braceright
ENCODING 125
SWIDTH 420 0
DWIDTH 21 0
BBX 17 34 0 0
BITMAP
FC0000
FF0000
FFC000
FFE000
0FF000
03F000
00F800
00F800
007C00
007C00
003C00
003C00
003C00
003C00
003E00
001E00
000F80
000F80
001E00
003E00
003C00
003C00
003C00
003C00
007C00
007C00
00F800
00F800
03F000
0FF000
FFE000
FFC000
FF0000
FC0000
ENDCHAR
STARTCHAR asciitilde
ENCODING 126
SWIDTH 345 0
DWIDTH 18 0
BBX 14 24 0 0
BITMAP
0FC0
0FC0
0FC0
0FC0
0FC0
0FC0
0FC0
0FC0
0FC0
0FC0
0FC0
0FC0
0FC0
0FC0
0FC0
0FC0
0FC0
0FC0
FFFC
FFFC
FFFC
FFFC
FCFC
FCFC
ENDCHAR
STARTCHAR uni0401
ENCODING 1025
SWIDTH 520 0
DWIDTH 26 0
BBX 22 40 0 0
BITMAP
0F03C0
0F03C0
0F03C0
0F03C0
000000
000000
FFFFFC
FFFFFC
FFFFFC
FFFFFC
F00000
F00000
F00000
F00000
F00000
F00000
F00000
F00000
F00000
F00000
FFFFC0
FFFFC0
FFFFC0
FFFFC0
F00000
F00000
F00000
F00000
F00000
F00000
F00000
F00000
F00000
F00000
F00000
F00000
FFFFFC
FFFFFC
FFFFFC
FFFFFC
ENDCHAR
STARTCHAR uni0410
ENCODING 1040
SWIDTH 480 0
DWIDTH 24 0
BBX 20 34 0 0
BITMAP
00F000
03FC00
0FFF00
1FFF80
3F0FC0
3C03C0
7801E0
7801E0
F000F0
F000F0
F000F0
F000F0
F000F0
F000F0
F000F0
F000F0
FFFFF0
FFFFF0
FFFFF0
FFFFF0
F000F0
F000F0
F000F0
F000F0
F000F0
F000F0
F000F0
F000F0
F000F0
F000F0
F000F0
F000F0
F000F0
F000F0
ENDCHAR
STARTCHAR uni0411
ENCODING 1041
SWIDTH 440 0
DWIDTH 22 0
BBX 18 34 0 0
BITMAP
FFFFC0
FFFFC0
FFFFC0
FFFFC0
F00000
F00000
F00000
F00000
F00000
F00000
F00000
F00000
FFF000
FFFC00
FFFE00
FFFF00
F03F80
F00F80
F007C0
F007C0
F003C0
F003C0
F003C0
F003C0
F003C0
F003C0
F007C0
F007C0
F00F80
F03F80
FFFF00
FFFE00
FFFC00
FFF000
ENDCHAR
STARTCHAR uni0412
ENCODING 1042
SWIDTH 440 0
DWIDTH 24 0
BBX 20 34 0 0
BITMAP
FFC000
FFF000
FFF800
FFFC00
F03E00
F01E00
F00F00
F00F00
F00F00
F00F00
F01E00
F01E00
F03C00
F0F800
FFF800
FFFC00
FFFE00
FFFF00
F01F80
F007C0
F003E0
F001E0
F001F0
F000F0
F000F0
F000F0
F001E0
F003E0
F00FC0
F03FC0
FFFF80
FFFF00
FFFC00
FFF000
ENDCHAR
STARTCHAR uni0413
ENCODING 1043
SWIDTH 440 0
DWIDTH 22 0
BBX 18 34 0 0
BITMAP
FFFFC0
FFFFC0
FFFFC0
FFFFC0
F00000
F00000
F00000
F00000
F00000
F00000
F00000
F00000
F00000
F00000
F00000
F00000
F00000
F00000
F00000
F00000
F00000
F00000
F00000
F00000
F00000
F00000
F00000
F00000
F00000
F00000
F00000
F00000
F00000
F00000
ENDCHAR
STARTCHAR uni0414
ENCODING 1044
SWIDTH 640 0
DWIDTH 32 0
BBX 28 34 0 0
BITMAP
000F0000
001F8000
003FC000
003FC000
007FE000
0079E000
00F0F000
00F0F000
01E07800
01E07800
03C03C00
03C03C00
03C03C00
07801E00
07801E00
07801E00
0F000F00
0F000F00
0F000F00
0F000F00
0F000F00
0F000F00
0F000F00
0F000F00
FFFFFFF0
FFFFFFF0
FFFFFFF0
FFFFFFF0
F00000F0
F00000F0
F00000F0
F00000F0
F00000F0
F00000F0
ENDCHAR
STARTCHAR uni0415
ENCODING 1045
SWIDTH 520 0
DWIDTH 26 0
BBX 22 34 0 0
BITMAP
FFFFFC
FFFFFC
FFFFFC
FFFFFC
F00000
F00000
F00000
F00000
F00000
F00000
F00000
F00000
F00000
F00000
FFFFC0
FFFFC0
FFFFC0
FFFFC0
F00000
F00000
F00000
F00000
F00000
F00000
F00000
F00000
F00000
F00000
F00000
F00000
FFFFFC
FFFFFC
FFFFFC
FFFFFC
ENDCHAR
STARTCHAR uni0416
ENCODING 1046
SWIDTH 720 0
DWIDTH 36 0
BBX 32 34 0 0
BITMAP
F003C00F
F003C00F
F003C00F
F003C00F
F003C00F
F803C01F
F803C01F
7803C01E
7C03C03E
7C03C03E
3E03C07C
3F03C0FC
1FC3C3F8
0FFFFFF0
07FFFFE0
03FFFFC0
00FFFF00
00FFFF00
03FFFFC0
07FFFFE0
0FFFFFF0
1FC3C3F8
3F03C0FC
3E03C07C
7C03C03E
7C03C03E
7803C01E
F803C01F
F803C01F
F003C00F
F003C00F
F003C00F
F003C00F
F003C00F
ENDCHAR
STARTCHAR uni0417
ENCODING 1047
SWIDTH 461 0
DWIDTH 24 0
BBX 20 34 0 0
BITMAP
03FC00
0FFF00
1FFF80
3FFFC0
7F0FE0
7C03E0
F801F0
F801F0
F000F0
F000F0
0000F0
0001F0
0001F0
0003E0
000FE0
00FFC0
00FF80
00FF80
00FFC0
000FE0
0003E0
0001F0
0001F0
0000F0
F000F0
F000F0
F801F0
F801F0
7C03E0
7F0FE0
3FFFC0
1FFF80
0FFF00
03FC00
ENDCHAR
STARTCHAR uni0418
ENCODING 1048
SWIDTH 540 0
DWIDTH 27 0
BBX 23 34 0 0
BITMAP
F0007E
F0007E
F000FE
F000FE
F001FE
F001FE
F003FE
F003FE
F007DE
F007DE
F00F9E
F00F9E
F01F1E
F01F1E
F03E1E
F03E1E
F07C1E
F07C1E
F0F81E
F0F81E
F1F01E
F1F01E
F3E01E
F3E01E
F7C01E
F7C01E
FF801E
FF801E
FF001E
FF001E
FE001E
FE001E
FC001E
FC001E
ENDCHAR
STARTCHAR uni0419
ENCODING 1049
SWIDTH 540 0
DWIDTH 27 0
BBX 23 41 0 0
BITMAP
0700E0
07C3E0
07FFE0
03FFC0
01FF80
003C00
000000
F0007E
F0007E
F000FE
F000FE
F001FE
F001FE
F003FE
F003FE
F007DE
F007DE
F00F9E
F00F9E
F01F1E
F01F1E
F03E1E
F03E1E
F07C1E
F07C1E
F0F81E
F0F81E
F1F01E
F1F01E
F3E01E
F3E01E
F7C01E
F7C01E
FF801E
FF801E
FF001E
FF001E
FE001E
FE001E
FC001E
FC001E
ENDCHAR
STARTCHAR uni041A
ENCODING 1050
SWIDTH 520 0
DWIDTH 26 0
BBX 22 34 0 0
BITMAP
F0003C
F0003C
F0003C
F0003C
F0003C
F0007C
F0007C
F000F8
F001F8
F003F0
F007E0
F00FC0
F01F80
F07F00
FFFE00
FFFC00
FFFE00
FFFF00
F07F80
F00FC0
F003E0
F001F0
F000F0
F000F8
F00078
F00078
F0007C
F0003C
F0003C
F0003C
F0003C
F0003C
F0003C
F0003C
ENDCHAR
STARTCHAR uni041B
ENCODING 1051
SWIDTH 760 0
DWIDTH 38 0
BBX 34 34 0 0
BITMAP
0001E00000
0001E00000
0003F00000
0003F00000
0007F80000
0007F80000
000FFC0000
000FFC0000
001F3E0000
001F3E0000
003E1F0000
003E1F0000
007C0F8000
007C0F8000
00F807C000
00F807C000
01F003E000
01F003E000
03E001F000
03E001F000
07C000F800
07C000F800
0F80007C00
0F80007C00
1F00003E00
1F00003E00
3E00001F00
3E00001F00
7C00000F80
7C00000F80
F8000007C0
F8000007C0
F0000003C0
F0000003C0
ENDCHAR
STARTCHAR uni041C
ENCODING 1052
SWIDTH 640 0
DWIDTH 32 0
BBX 28 34 0 0
BITMAP
FC0003F0
FC0003F0
FE0007F0
FE0007F0
FF000FF0
FF000FF0
FF801FF0
FF801FF0
FFC03FF0
FFC03FF0
F3E07CF0
F3E07CF0
F1F0F8F0
F1F0F8F0
F0F9F0F0
F0F9F0F0
F07FE0F0
F07FE0F0
F03FC0F0
F03FC0F0
F01F80F0
F01F80F0
F00F00F0
F00F00F0
F00600F0
F00600F0
F00000F0
F00000F0
F00000F0
F00000F0
F00000F0
F00000F0
F00000F0
F00000F0
ENDCHAR
STARTCHAR uni041D
ENCODING 1053
SWIDTH 520 0
DWIDTH 26 0
BBX 22 34 0 0
BITMAP
F0003C
F0003C
F0003C
F0003C
F0003C
F0003C
F0003C
F0003C
F0003C
F0003C
F0003C
F0003C
F0003C
F0003C
F0003C
F0003C
FFFFFC
FFFFFC
FFFFFC
FFFFFC
F0003C
F0003C
F0003C
F0003C
F0003C
F0003C
F0003C
F0003C
F0003C
F0003C
F0003C
F0003C
F0003C
F0003C
ENDCHAR
STARTCHAR uni041E
ENCODING 1054
SWIDTH 560 0
DWIDTH 28 0
BBX 24 34 0 0
BITMAP
00FF00
03FFC0
0FFFF0
1FFFF8
3FC3FC
3F00FC
7C003E
7C003E
F8001F
F8001F
F0000F
F0000F
F0000F
F0000F
F0000F
F0000F
F0000F
F0000F
F0000F
F0000F
F0000F
F0000F
F0000F
F0000F
F8001F
F8001F
7C003E
7C003E
3F00FC
3FC3FC
1FFFF8
0FFFF0
03FFC0
00FF00
ENDCHAR
STARTCHAR uni041F
ENCODING 1055
SWIDTH 520 0
DWIDTH 26 0
BBX 22 34 0 0
BITMAP
FFFFFC
FFFFFC
FFFFFC
FFFFFC
F0003C
F0003C
F0003C
F0003C
F0003C
F0003C
F0003C
F0003C
F0003C
F0003C
F0003C
F0003C
F0003C
F0003C
F0003C
F0003C
F0003C
F0003C
F0003C
F0003C
F0003C
F0003C
F0003C
F0003C
F0003C
F0003C
F0003C
F0003C
F0003C
F0003C
ENDCHAR
STARTCHAR uni0420
ENCODING 1056
SWIDTH 460 0
DWIDTH 23 0
BBX 19 34 0 0
BITMAP
FFF000
FFFC00
FFFE00
FFFF00
F01F80
F007C0
F003C0
F003E0
F001E0
F001E0
F001E0
F001E0
F001E0
F001E0
F003E0
F003C0
F007C0
F01F80
FFFF00
FFFE00
FFFC00
FFF000
F00000
F00000
F00000
F00000
F00000
F00000
F00000
F00000
F00000
F00000
F00000
F00000
ENDCHAR
STARTCHAR uni0421
ENCODING 1057
SWIDTH 520 0
DWIDTH 26 0
BBX 22 34 0 0
BITMAP
00FF00
03FFC0
07FFE0
0FFFF0
1FC3F8
1F00F8
3E007C
3C007C
7C003C
78003C
780000
F80000
F00000
F00000
F00000
F00000
F00000
F00000
F00000
F00000
F00000
F00000
F80000
780000
78003C
7C003C
3C007C
3E007C
1F00F8
1FC3F8
0FFFF0
07FFE0
03FFC0
00FF00
ENDCHAR
STARTCHAR uni0422
ENCODING 1058
SWIDTH 560 0
DWIDTH 28 0
BBX 22 34 2 0
BITMAP
FFFFFC
FFFFFC
FFFFFC
FFFFFC
00F000
00F000
00F000
00F000
00F000
00F000
00F000
00F000
00F000
00F000
00F000
00F000
00F000
00F000
00F000
00F000
00F000
00F000
00F000
00F000
00F000
00F000
00F000
00F000
00F000
00F000
00F000
00F000
00F000
00F000
ENDCHAR
STARTCHAR uni0423
ENCODING 1059
SWIDTH 560 0
DWIDTH 28 0
BBX 24 34 0 0
BITMAP
F0000F
F0000F
F0000F
F0000F
F0000F
F8001F
F8001F
F8001F
7C003E
7C003E
7E007C
3E007C
3F00F8
1FC3F8
0FFFF0
07FFF0
03FFE0
00FFE0
0003C0
0007C0
000780
000F80
000F00
001F00
003E00
007E00
00FC00
01F800
03F000
0FE000
FFC000
FF8000
FF0000
FC0000
ENDCHAR
STARTCHAR uni0424
ENCODING 1060
SWIDTH 560 0
DWIDTH 28 0
BBX 24 34 0 0
BITMAP
003C00
003C00
03FFC0
0FFFF0
1FFFF8
3FFFFC
7C3C3E
783C1E
F03C0F
F03C0F
F03C0F
F03C0F
F03C0F
F03C0F
F03C0F
F03C0F
F03C0F
F03C0F
783C1E
7C3C3E
3FFFFC
1FFFF8
0FFFF0
03FFC0
003C00
003C00
003C00
003C00
003C00
003C00
003C00
003C00
003C00
003C00
ENDCHAR
STARTCHAR uni0425
ENCODING 1061
SWIDTH 600 0
DWIDTH 30 0
BBX 26 34 0 0
BITMAP
F00003C0
F00003C0
F00003C0
F00003C0
F00003C0
F80007C0
78000780
78000780
7C000F80
3C000F00
3E001F00
1F003E00
1F807E00
0FE1FC00
07FFF800
03FFF000
01FFE000
01FFE000
03FFF000
07FFF800
0FE1FC00
1F807E00
1F003E00
3E001F00
3C000F00
7C000F80
78000780
78000780
F80007C0
F00003C0
F00003C0
F00003C0
F00003C0
F00003C0
ENDCHAR
STARTCHAR uni0426
ENCODING 1062
SWIDTH 560 0
DWIDTH 28 0
BBX 26 38 0 -4
BITMAP
F0003C00
F0003C00
F0003C00
F0003C00
F0003C00
F0003C00
F0003C00
F0003C00
F0003C00
F0003C00
F0003C00
F0003C00
F0003C00
F0003C00
F0003C00
F0003C00
F0003C00
F0003C00
F0003C00
F0003C00
F0003C00
F0003C00
F0003C00
F0003C00
F0003C00
F0003C00
F0003C00
F0003C00
F0003C00
F0003C00
FFFFFFC0
FFFFFFC0
FFFFFFC0
FFFFFFC0
000003C0
000003C0
000003C0
000003C0
ENDCHAR
STARTCHAR uni0427
ENCODING 1063
SWIDTH 440 0
DWIDTH 22 0
BBX 18 34 0 0
BITMAP
F003C0
F003C0
F003C0
F003C0
F003C0
F003C0
F003C0
F003C0
F003C0
F003C0
F803C0
F803C0
7C03C0
7F03C0
3FFFC0
1FFFC0
0FFFC0
03FFC0
0003C0
0003C0
0003C0
0003C0
0003C0
0003C0
0003C0
0003C0
0003C0
0003C0
0003C0
0003C0
0003C0
0003C0
0003C0
0003C0
ENDCHAR
STARTCHAR uni0428
ENCODING 1064
SWIDTH 880 0
DWIDTH 44 0
BBX 40 34 0 0
BITMAP
F0003C000F
F0003C000F
F0003C000F
F0003C000F
F0003C000F
F0003C000F
F0003C000F
F0003C000F
F0003C000F
F0003C000F
F0003C000F
F0003C000F
F0003C000F
F0003C000F
F0003C000F
F0003C000F
F0003C000F
F0003C000F
F0003C000F
F0003C000F
F0003C000F
F0003C000F
F0003C000F
F0003C000F
F0003C000F
F0003C000F
F0003C000F
F0003C000F
F0003C000F
F0003C000F
FFFFFFFFFF
FFFFFFFFFF
FFFFFFFFFF
FFFFFFFFFF
ENDCHAR
STARTCHAR uni0429
ENCODING 1065
SWIDTH 920 0
DWIDTH 46 0
BBX 44 38 0 -4
BITMAP
F0003C000F00
F0003C000F00
F0003C000F00
F0003C000F00
F0003C000F00
F0003C000F00
F0003C000F00
F0003C000F00
F0003C000F00
F0003C000F00
F0003C000F00
F0003C000F00
F0003C000F00
F0003C000F00
F0003C000F00
F0003C000F00
F0003C000F00
F0003C000F00
F0003C000F00
F0003C000F00
F0003C000F00
F0003C000F00
F0003C000F00
F0003C000F00
F0003C000F00
F0003C000F00
F0003C000F00
F0003C000F00
F0003C000F00
F0003C000F00
FFFFFFFFFFF0
FFFFFFFFFFF0
FFFFFFFFFFF0
FFFFFFFFFFF0
0000000000F0
0000000000F0
0000000000F0
0000000000F0
ENDCHAR
STARTCHAR uni042A
ENCODING 1066
SWIDTH 600 0
DWIDTH 30 0
BBX 26 34 0 0
BITMAP
FFC00000
FFC00000
FFC00000
FFC00000
03C00000
03C00000
03C00000
03C00000
03C00000
03C00000
03C00000
03C00000
03FFF000
03FFFC00
03FFFE00
03FFFF00
03C03F80
03C00F80
03C007C0
03C007C0
03C003C0
03C003C0
03C003C0
03C003C0
03C003C0
03C003C0
03C007C0
03C007C0
03C00F80
03C03F80
03FFFF00
03FFFE00
03FFFC00
03FFF000
ENDCHAR
STARTCHAR uni042B
ENCODING 1067
SWIDTH 640 0
DWIDTH 32 0
BBX 28 34 0 0
BITMAP
F00000F0
F00000F0
F00000F0
F00000F0
F00000F0
F00000F0
F00000F0
F00000F0
F00000F0
F00000F0
F00000F0
F00000F0
FFFC00F0
FFFF00F0
FFFF80F0
FFFFC0F0
F00FE0F0
F003E0F0
F001F0F0
F001F0F0
F000F0F0
F000F0F0
F000F0F0
F000F0F0
F000F0F0
F000F0F0
F001F0F0
F001F0F0
F003E0F0
F00FE0F0
FFFFC0F0
FFFF80F0
FFFF00F0
FFFC00F0
ENDCHAR
STARTCHAR uni042C
ENCODING 1068
SWIDTH 461 0
DWIDTH 24 0
BBX 20 34 0 0
BITMAP
F00000
F00000
F00000
F00000
F00000
F00000
F00000
F00000
F00000
F00000
F00000
F00000
FFFC00
FFFF00
FFFF80
FFFFC0
F00FE0
F003E0
F001F0
F001F0
F000F0
F000F0
F000F0
F000F0
F000F0
F000F0
F001F0
F001F0
F003E0
F00FE0
FFFFC0
FFFF80
FFFF00
FFFC00
ENDCHAR
STARTCHAR uni042D
ENCODING 1069
SWIDTH 500 0
DWIDTH 25 0
BBX 21 34 0 0
BITMAP
07F800
1FFE00
7FFF80
FFFFC0
FE1FE0
F807E0
F001F0
0001F0
0000F8
0000F8
000078
000078
000078
000078
000078
00FFF8
00FFF8
00FFF8
00FFF8
000078
000078
000078
000078
000078
0000F8
0000F8
0001F0
F001F0
F807E0
FE1FE0
FFFFC0
7FFF80
1FFE00
07F800
ENDCHAR
STARTCHAR uni042E
ENCODING 1070
SWIDTH 720 0
DWIDTH 36 0
BBX 32 34 0 0
BITMAP
F000FF00
F003FFC0
F00FFFF0
F01FFFF8
F03FC3FC
F03F00FC
F07C003E
F07C003E
F0F8001F
F0F8001F
F0F0000F
F0F0000F
F0F0000F
F0F0000F
FFF0000F
FFF0000F
FFF0000F
FFF0000F
F0F0000F
F0F0000F
F0F0000F
F0F0000F
F0F0000F
F0F0000F
F0F8001F
F0F8001F
F07C003E
F07C003E
F03F00FC
F03FC3FC
F01FFFF8
F00FFFF0
F003FFC0
F000FF00
ENDCHAR
STARTCHAR uni042F
ENCODING 1071
SWIDTH 460 0
DWIDTH 23 0
BBX 19 34 0 0
BITMAP
01FFE0
07FFE0
0FFFE0
1FFFE0
3F01E0
7C01E0
7801E0
F801E0
F001E0
F001E0
F001E0
F001E0
F001E0
F001E0
F801E0
7801E0
7C01E0
3F01E0
1FFFE0
0FFFE0
07FFE0
03FFE0
07E1E0
0FC1E0
1F81E0
3F01E0
3E01E0
7C01E0
7C01E0
7801E0
F801E0
F001E0
F001E0
F001E0
ENDCHAR
STARTCHAR uni0430
ENCODING 1072
SWIDTH 384 0
DWIDTH 20 0
BBX 18 24 0 0
BITMAP
1FF800
3FFC00
7FFE00
FFFF00
F81F00
F00F00
000F00
000F00
000F00
000F00
07FF00
1FFF00
3FFF00
7FFF00
FC0F00
F80F00
F00F00
F00F00
F80F00
FC1F00
7FFF80
3FFFC0
1FFBC0
07F1C0
ENDCHAR
STARTCHAR uni0431
ENCODING 1073
SWIDTH 400 0
DWIDTH 20 0
BBX 16 34 0 0
BITMAP
0007
000F
03FF
0FFF
1FFE
3FFC
7F00
7C00
F800
F800
FFC0
FFF0
FFF8
FFFC
FC3E
F81E
F00F
F00F
F00F
F00F
F00F
F00F
F00F
F00F
F00F
F00F
F00F
F00F
781E
7C3E
3FFC
1FF8
0FF0
03C0
ENDCHAR
STARTCHAR uni0432
ENCODING 1074
SWIDTH 380 0
DWIDTH 19 0
BBX 15 24 0 0
BITMAP
FF00
FFC0
FFE0
FFE0
F1F0
F0F0
F0F0
F0F0
F0F0
F1E0
FFE0
FFF0
FFF8
FFFC
F0FC
F03E
F01E
F01E
F03E
F0FC
FFFC
FFF8
FFF0
FFC0
ENDCHAR
STARTCHAR uni0433
ENCODING 1075
SWIDTH 307 0
DWIDTH 16 0
BBX 12 24 0 0
BITMAP
FFF0
FFF0
FFF0
FFF0
F000
F000
F000
F000
F000
F000
F000
F000
F000
F000
F000
F000
F000
F000
F000
F000
F000
F000
F000
F000
ENDCHAR
STARTCHAR uni0434
ENCODING 1076
SWIDTH 461 0
DWIDTH 24 0
BBX 20 28 0 -4
BITMAP
00F000
03FC00
07FE00
0FFF00
1F0F80
1E0780
3C03C0
3C03C0
3C03C0
3C03C0
3C03C0
3C03C0
3C03C0
3C03C0
3C03C0
3C03C0
3C03C0
3C03C0
3C03C0
3C03C0
FFFFF0
FFFFF0
FFFFF0
FFFFF0
F000F0
F000F0
F000F0
F000F0
ENDCHAR
STARTCHAR uni0435
ENCODING 1077
SWIDTH 384 0
DWIDTH 20 0
BBX 16 24 0 0
BITMAP
03C0
0FF0
1FF8
3FFC
7C3E
781E
F00F
F00F
F00F
F00F
FFFF
FFFF
FFFF
FFFF
F000
F000
F000
F000
780F
7C1F
3FFF
1FFE
0FFC
03F8
ENDCHAR
STARTCHAR uni0436
ENCODING 1078
SWIDTH 560 0
DWIDTH 28 0
BBX 24 24 0 0
BITMAP
F03C0F
F03C0F
F03C0F
F03C0F
F83C1F
FC3C3F
7E3C7E
3F3CFC
1FFFF8
0FFFF0
07FFE0
03FFC0
03FFC0
07FFE0
0FFFF0
1FFFF8
3F3CFC
7E3C7E
FC3C3F
F83C1F
F03C0F
F03C0F
F03C0F
F03C0F
ENDCHAR
STARTCHAR uni0437
ENCODING 1079
SWIDTH 345 0
DWIDTH 18 0
BBX 14 24 0 0
BITMAP
0F00
3FC0
7FE0
7FF0
F8F8
F078
003C
003C
007C
00FC
0FF8
0FF0
0FF0
0FF8
00FC
007C
003C
003C
F07C
F8FC
FFF8
FFF8
7FF0
3FC0
ENDCHAR
STARTCHAR uni0438
ENCODING 1080
SWIDTH 384 0
DWIDTH 20 0
BBX 16 24 0 0
BITMAP
F00F
F00F
F01F
F01F
F03F
F03F
F07F
F07F
F0FF
F0FF
F1EF
F1EF
F3CF
F3CF
F78F
F78F
FF0F
FF0F
FE0F
FE0F
FC0F
FC0F
F80F
F00F
ENDCHAR
STARTCHAR uni0439
ENCODING 1081
SWIDTH 384 0
DWIDTH 20 0
BBX 16 30 0 0
BITMAP
3C3C
3FFC
1FF8
07E0
0000
0000
F00F
F00F
F01F
F01F
F03F
F03F
F07F
F07F
F0FF
F0FF
F1EF
F1EF
F3CF
F3CF
F78F
F78F
FF0F
FF0F
FE0F
FE0F
FC0F
FC0F
F80F
F00F
ENDCHAR
STARTCHAR uni043A
ENCODING 1082
SWIDTH 360 0
DWIDTH 18 0
BBX 14 24 0 0
BITMAP
F03C
F03C
F03C
F03C
F07C
F0F8
F1F8
F3F0
FFE0
FFC0
FF80
FF00
FF00
FFC0
F7E0
F3F0
F1F0
F0F8
F078
F07C
F03C
F03C
F03C
F03C
ENDCHAR
STARTCHAR uni043B
ENCODING 1083
SWIDTH 560 0
DWIDTH 28 0
BBX 24 24 0 0
BITMAP
001800
001800
003C00
003C00
007E00
007E00
00FF00
00FF00
01E780
01E780
03C3C0
03C3C0
0781E0
0781E0
0F00F0
0F00F0
1E0078
1E0078
3C003C
3C003C
78001E
78001E
F0000F
F0000F
ENDCHAR
STARTCHAR uni043C
ENCODING 1084
SWIDTH 520 0
DWIDTH 26 0
BBX 22 24 0 0
BITMAP
F0003C
F0003C
F8007C
F8007C
FC00FC
FC00FC
FE01FC
FE01FC
FF03FC
FF03FC
F787BC
F787BC
F3CF3C
F3CF3C
F1FE3C
F1FE3C
F0FC3C
F0FC3C
F0783C
F0783C
F0003C
F0003C
F0003C
F0003C
ENDCHAR
STARTCHAR uni043D
ENCODING 1085
SWIDTH 384 0
DWIDTH 20 0
BBX 16 24 0 0
BITMAP
F00F
F00F
F00F
F00F
F00F
F00F
F00F
F00F
F00F
F00F
FFFF
FFFF
FFFF
FFFF
F00F
F00F
F00F
F00F
F00F
F00F
F00F
F00F
F00F
F00F
ENDCHAR
STARTCHAR uni043E
ENCODING 1086
SWIDTH 422 0
DWIDTH 22 0
BBX 18 24 0 0
BITMAP
03F000
0FFC00
1FFE00
3FFF00
7F3F80
7C0F80
F807C0
F807C0
F003C0
F003C0
F003C0
F003C0
F003C0
F003C0
F003C0
F003C0
F807C0
F807C0
7C0F80
7F3F80
3FFF00
1FFE00
0FFC00
03F000
ENDCHAR
STARTCHAR uni043F
ENCODING 1087
SWIDTH 384 0
DWIDTH 20 0
BBX 16 24 0 0
BITMAP
FFFF
FFFF
FFFF
FFFF
F00F
F00F
F00F
F00F
F00F
F00F
F00F
F00F
F00F
F00F
F00F
F00F
F00F
F00F
F00F
F00F
F00F
F00F
F00F
F00F
ENDCHAR
STARTCHAR uni0440
ENCODING 1088
SWIDTH 384 0
DWIDTH 20 0
BBX 16 36 0 -12
BITMAP
FFC0
FFF0
FFF8
FFFC
F0FE
F03E
F01F
F01F
F00F
F00F
F00F
F00F
F00F
F00F
F00F
F00F
F01F
F01F
F03E
F0FE
FFFC
FFF8
FFF0
FFC0
F000
F000
F000
F000
F000
F000
F000
F000
F000
F000
F000
F000
ENDCHAR
STARTCHAR uni0441
ENCODING 1089
SWIDTH 345 0
DWIDTH 18 0
BBX 14 24 0 0
BITMAP
03F0
0FF8
1FFC
3FFC
7F3C
7C1C
F800
F800
F000
F000
F000
F000
F000
F000
F000
F000
F800
F800
7C1C
7F3C
3FFC
1FFC
0FF8
03F0
ENDCHAR
STARTCHAR uni0442
ENCODING 1090
SWIDTH 384 0
DWIDTH 20 0
BBX 16 24 0 0
BITMAP
FFFF
FFFF
FFFF
FFFF
03C0
03C0
03C0
03C0
03C0
03C0
03C0
03C0
03C0
03C0
03C0
03C0
03C0
03C0
03C0
03C0
03C0
03C0
03C0
03C0
ENDCHAR
STARTCHAR uni0443
ENCODING 1091
SWIDTH 440 0
DWIDTH 22 0
BBX 18 24 0 0
BITMAP
F003C0
F003C0
F003C0
F003C0
780780
780780
3C0F00
3C0F00
1E1E00
1F3E00
0FFC00
0FFC00
07F800
03F800
00F000
00F000
01E000
03E000
07C000
0FC000
FF8000
FF0000
FE0000
FC0000
ENDCHAR
STARTCHAR uni0444
ENCODING 1092
SWIDTH 560 0
DWIDTH 28 0
BBX 24 36 0 -12
BITMAP
03FFC0
0FFFF0
1FFFF8
3FFFFC
7C3C3E
783C1E
F03C0F
F03C0F
F03C0F
F03C0F
F03C0F
F03C0F
F03C0F
F03C0F
F03C0F
F03C0F
F03C0F
F03C0F
783C1E
7C3C3E
3FFFFC
1FFFF8
0FFFF0
03FFC0
003C00
003C00
003C00
003C00
003C00
003C00
003C00
003C00
003C00
003C00
003C00
003C00
ENDCHAR
STARTCHAR uni0445
ENCODING 1093
SWIDTH 422 0
DWIDTH 22 0
BBX 18 24 0 0
BITMAP
F003C0
F003C0
F003C0
F003C0
F807C0
7C0F80
7E1F80
3F3F00
1FFE00
0FFC00
07F800
03F000
03F000
07F800
0FFC00
1FFE00
3F3F00
3E1F00
7C0F80
780780
F003C0
F003C0
F003C0
F003C0
ENDCHAR
STARTCHAR uni0446
ENCODING 1094
SWIDTH 440 0
DWIDTH 22 0
BBX 20 26 0 -2
BITMAP
F00F00
F00F00
F00F00
F00F00
F00F00
F00F00
F00F00
F00F00
F00F00
F00F00
F00F00
F00F00
F00F00
F00F00
F00F00
F00F00
F00F00
F00F00
F00F00
F00F00
FFFFF0
FFFFF0
FFFFF0
FFFFF0
0000F0
0000F0
ENDCHAR
STARTCHAR uni0447
ENCODING 1095
SWIDTH 384 0
DWIDTH 20 0
BBX 16 24 0 0
BITMAP
F00F
F00F
F00F
F00F
F00F
F00F
F00F
F00F
780F
7C0F
3FFF
1FFF
0FFF
03FF
000F
000F
000F
000F
000F
000F
000F
000F
000F
000F
ENDCHAR
STARTCHAR uni0448
ENCODING 1096
SWIDTH 640 0
DWIDTH 32 0
BBX 28 24 0 0
BITMAP
F00F00F0
F00F00F0
F00F00F0
F00F00F0
F00F00F0
F00F00F0
F00F00F0
F00F00F0
F00F00F0
F00F00F0
F00F00F0
F00F00F0
F00F00F0
F00F00F0
F00F00F0
F00F00F0
F00F00F0
F00F00F0
F00F00F0
F00F00F0
FFFFFFF0
FFFFFFF0
FFFFFFF0
FFFFFFF0
ENDCHAR
STARTCHAR uni0449
ENCODING 1097
SWIDTH 680 0
DWIDTH 34 0
BBX 32 28 0 -4
BITMAP
F00F00F0
F00F00F0
F00F00F0
F00F00F0
F00F00F0
F00F00F0
F00F00F0
F00F00F0
F00F00F0
F00F00F0
F00F00F0
F00F00F0
F00F00F0
F00F00F0
F00F00F0
F00F00F0
F00F00F0
F00F00F0
F00F00F0
F00F00F0
FFFFFFFF
FFFFFFFF
FFFFFFFF
FFFFFFFF
0000000F
0000000F
0000000F
0000000F
ENDCHAR
STARTCHAR uni044A
ENCODING 1098
SWIDTH 422 0
DWIDTH 22 0
BBX 18 24 0 0
BITMAP
FF0000
FF0000
FF0000
FF0000
0F0000
0F0000
0F0000
0F0000
0FF000
0FFC00
0FFE00
0FFF00
0F0F80
0F0780
0F03C0
0F03C0
0F03C0
0F03C0
0F0780
0F0F80
0FFF00
0FFE00
0FFC00
0FF000
ENDCHAR
STARTCHAR uni044B
ENCODING 1099
SWIDTH 461 0
DWIDTH 24 0
BBX 20 24 0 0
BITMAP
F000F0
F000F0
F000F0
F000F0
F000F0
F000F0
F000F0
F000F0
FF00F0
FFC0F0
FFE0F0
FFF0F0
F0F8F0
F078F0
F03CF0
F03CF0
F03CF0
F03CF0
F078F0
F0F8F0
FFF0F0
FFE0F0
FFC0F0
FF00F0
ENDCHAR
STARTCHAR uni044C
ENCODING 1100
SWIDTH 345 0
DWIDTH 18 0
BBX 14 24 0 0
BITMAP
F000
F000
F000
F000
F000
F000
F000
F000
FF00
FFC0
FFE0
FFF0
F0F8
F078
F03C
F03C
F03C
F03C
F078
F0F8
FFF0
FFE0
FFC0
FF00
ENDCHAR
STARTCHAR uni044D
ENCODING 1101
SWIDTH 384 0
DWIDTH 20 0
BBX 16 24 0 0
BITMAP
0FC0
3FF0
7FF8
7FFC
F03E
E01E
000F
000F
000F
000F
0FFF
0FFF
0FFF
0FFF
000F
000F
000F
000F
E01E
F03E
7FFC
7FF8
3FF0
0FC0
ENDCHAR
STARTCHAR uni044E
ENCODING 1102
SWIDTH 600 0
DWIDTH 30 0
BBX 26 24 0 0
BITMAP
F003F000
F00FFC00
F01FFE00
F03FFF00
F07C0F80
F0780780
F0F003C0
F0F003C0
F0F003C0
F0F003C0
FFF003C0
FFF003C0
FFF003C0
FFF003C0
F0F003C0
F0F003C0
F0F003C0
F0F003C0
F0780780
F07C0F80
F03FFF00
F01FFE00
F00FFC00
F003F000
ENDCHAR
STARTCHAR uni044F
ENCODING 1103
SWIDTH 345 0
DWIDTH 18 0
BBX 14 24 0 0
BITMAP
03FC
0FFC
1FFC
3FFC
7C3C
783C
F03C
F03C
F83C
FC3C
7FFC
3FFC
1FFC
0FFC
03FC
03FC
07FC
0FFC
1F3C
3E3C
7C3C
F83C
F03C
F03C
ENDCHAR
STARTCHAR uni0451
ENCODING 1105
SWIDTH 384 0
DWIDTH 20 0
BBX 16 30 0 0
BITMAP
3C3C
3C3C
3C3C
3C3C
0000
0000
03C0
0FF0
1FF8
3FFC
7C3E
781E
F00F
F00F
F00F
F00F
FFFF
FFFF
FFFF
FFFF
F000
F000
F000
F000
780F
7C1F
3FFF
1FFE
0FFC
03F8
ENDCHAR
STARTCHAR uni23F8
ENCODING 9208
SWIDTH 500 0
DWIDTH 26 0
BBX 22 22 0 0
BITMAP
FC00FC
FC00FC
FC00FC
FC00FC
FC00FC
FC00FC
FC00FC
FC00FC
FC00FC
FC00FC
FC00FC
FC00FC
FC00FC
FC00FC
FC00FC
FC00FC
FC00FC
FC00FC
FC00FC
FC00FC
FC00FC
FC00FC
ENDCHAR
STARTCHAR uni25B6
ENCODING 9654
SWIDTH 500 0
DWIDTH 26 0
BBX 22 22 0 0
BITMAP
C00000
F00000
FC0000
FF0000
FFC000
FFF000
FFFC00
FFFF00
FFFFC0
FFFFF0
FFFFFC
FFFFFC
FFFFF0
FFFFC0
FFFF00
FFFC00
FFF000
FFC000
FF0000
FC0000
F00000
C00000
ENDCHAR
STARTCHAR uni2713
ENCODING 10003
SWIDTH 422 0
DWIDTH 22 0
BBX 18 20 0 2
BITMAP
0003C0
0003C0
0003C0
0003C0
0007C0
0007C0
000F80
000F80
001F00
001F00
E03E00
F03E00
F87C00
FCFC00
7FF800
3FF800
1FF000
0FF000
07E000
03C000
ENDCHAR
STARTCHAR u1F507
ENCODING 10004
SWIDTH 462 0
DWIDTH 24 0
BBX 20 20 0 2
BITMAP
000C10
000C30
001C60
003CC0
007D80
00FF00
03FA00
0FF000
FFE400
FFCC00
FF9C00
FF3C00
0E7C00
00FC00
06FC00
0C7C00
183C00
301C00
600C00
C00C00
ENDCHAR
STARTCHAR u1F508
ENCODING 10005
SWIDTH 440 0
DWIDTH 22 0
BBX 18 20 0 2
BITMAP
000C00
000C00
001C00
003C00
007C00
00FC00
03FC00
0FFC00
FFFC80
FFFCC0
FFFCC0
FFFC80
0FFC00
03FC00
00FC00
007C00
003C00
001C00
000C00
000C00
ENDCHAR
STARTCHAR u1F509
ENCODING 10006
SWIDTH 500 0
DWIDTH 25 0
BBX 21 20 0 2
BITMAP
000C00
000C00
001C00
003C00
007C00
00FC60
03FC70
0FFC38
FFFC98
FFFCD8
FFFCD8
FFFC98
0FFC38
03FC70
00FC60
007C00
003C00
001C00
000C00
000C00
ENDCHAR
STARTCHAR u1F50A
ENCODING 10007
SWIDTH 560 0
DWIDTH 28 0
BBX 24 20 0 2
BITMAP
000C00
000C00
001C18
003C1C
007C0E
00FC67
03FC73
0FFC3B
FFFC9B
FFFCDB
FFFCDB
FFFC9B
0FFC3B
03FC73
00FC67
007C0E
003C1C
001C18
000C00
000C00
ENDCHAR
STARTCHAR .notdef
ENCODING 10011
SWIDTH 520 0
DWIDTH 26 0
BBX 22 32 0 0
BITMAP
FFFFFC
FFFFFC
F0003C
F0003C
F8007C
D8006C
CC00CC
CE01CC
C6018C
C3030C
C3870C
C1860C
C0CC0C
C0FC0C
C0780C
C0300C
C0780C
C0780C
C0CC0C
C1CE0C
C1860C
C3030C
C7038C
C6018C
CC00CC
DC00EC
D8006C
F0003C
F0003C
F0003C
FFFFFC
FFFFFC
ENDCHAR
ENDFONT
